<?xml version="1.0" encoding="utf-8"?><!DOCTYPE svg PUBLIC "-//W3C//DTD SVG 1.1//EN" "http://www.w3.org/Graphics/SVG/1.1/DTD/svg11.dtd"><svg version="1.1" id="Layer_1" xmlns="http://www.w3.org/2000/svg" xmlns:xlink="http://www.w3.org/1999/xlink" x="0px" y="0px" width="183.985px" height="16.006px" viewBox="0 0 183.985 16.006" enable-background="new 0 0 183.985 16.006" xml:space="preserve"><g fill="#fff"><g><path d="M183.204,1.839c-0.527-0.778-1.526-1.281-3.006-1.481c-0.588-0.098-1.89-0.126-3.914-0.126h-13.992v7.128c0,0.456-0.018,1.028-0.049,1.726c-0.037,0.679-0.092,1.157-0.162,1.449c-0.064,0.282-0.189,0.514-0.354,0.711c-0.254,0.282-0.686,0.473-1.299,0.564c-0.613,0.094-1.701,0.141-3.287,0.141c-1.934,0-3.217-0.099-3.857-0.282c-0.652-0.188-1.033-0.59-1.143-1.198c-0.09-0.44-0.135-1.46-0.164-3.11V0.231h-4.222c0.149,0.503,0.67,2.438,0.499,4.914c-0.057-1.339-1.002-4.465-3.729-4.906C143.303,0.057,141.081,0,137.869,0c-3.231,0-5.45,0.075-6.649,0.239c-0.92,0.132-1.643,0.454-2.184,0.926c0.166,0.898,0.229,2.154,0.123,3.723c0-1.032-0.271-2.197-1.018-3.192c-0.762-1.002-1.918-1.245-2.807-1.338c-0.521-0.054-1.474-0.12-4.054-0.126h-10.86c0.22,0.618,0.623,2.055,0.491,4.168c-0.065-1.233-0.726-2.556-1.674-3.225c-0.974-0.705-2.259-0.938-3.339-1.035c-1.1-0.093-2.592-0.14-4.455-0.14c-3.18,0-5.535,0.14-7.061,0.415c-0.764,0.143-1.382,0.43-1.854,0.841c0.122,0.863,0.202,2.052,0,3.503c-0.008-0.155-0.031-0.302-0.048-0.453c-0.078-1.338-0.366-2.326-0.898-2.92c-0.484-0.556-1.213-0.916-2.2-1.062c-0.993-0.153-3.016-0.229-6.05-0.229c-2.148,0-3.652,0.068-4.521,0.185c-1.346,0.205-2.259,0.585-2.76,1.176c-0.352,0.408-0.578,1.038-0.674,1.853c-0.04-0.144-0.068-0.298-0.104-0.428c-0.389-1.439-1.433-2.278-3.137-2.518c-1.176-0.155-3.344-0.238-6.492-0.238c-3.163,0-5.324,0.083-6.49,0.238c-1.711,0.239-2.76,1.078-3.14,2.518c-0.269,0.992-0.391,2.642-0.391,4.95c0,0.916,0.007,1.725,0.052,2.436l-4.984-9.933H43.78l-6.246,12.238V0.333h-4.658v5.441H22.803V0.333h-4.659v0.005c0.149,0.492,0.468,1.84,0.37,4.062c-0.033-0.69-0.42-2.678-1.925-3.613c-0.478-0.288-1.185-0.463-2.036-0.555c-0.855-0.092-2.221-0.137-4.103-0.137c-3.769,0-6.274,0.143-7.509,0.426c-1.23,0.298-2.066,0.912-2.467,1.873C0.29,2.824,0.161,3.436,0.098,4.21C0.04,4.989,0,6.262,0,8.02c0,1.796,0.039,3.04,0.098,3.731c0.084,0.868,0.258,1.525,0.515,2.02c0.263,0.483,0.67,0.879,1.204,1.172c0.594,0.321,1.488,0.527,2.662,0.644c1.18,0.11,3.15,0.159,5.939,0.159c2.631,0,4.502-0.13,5.576-0.389c1.223-0.286,1.943-1.125,2.149-1.423c0.201-0.291,0.772-1.402,0.85-2.646c0.11,2.862-0.85,4.229-0.85,4.229h4.659v-5.501h10.072v5.501h8.24l1.255-2.566l1.578-3.327l2.808-5.763h0.898l2.807,5.763l1.561,3.327l1.252,2.566h3.936c-0.609-0.554-1.206-1.671-1.287-3.454c0.245,2.316,2.48,3.31,3.232,3.419c1.178,0.169,3.355,0.241,6.527,0.241c3.123,0,5.279-0.074,6.455-0.241c1.521-0.217,2.514-0.903,2.984-2.063c0.055,0.182,0.129,0.368,0.213,0.517c0.289,0.515,0.668,0.9,1.157,1.149c0.501,0.256,1.188,0.419,2.093,0.511c0.963,0.084,2.756,0.128,5.371,0.128c2.191,0,3.82-0.058,4.869-0.18c1.045-0.119,1.817-0.317,2.357-0.625c0.541-0.34,0.92-0.76,1.139-1.287c0.171-0.441,0.273-1.084,0.306-1.895c0.001-0.019,0.004-0.036,0.005-0.055c0.146,1.48,0.047,2.478-0.079,3.123c0.052,0.045,0.079,0.085,0.126,0.114c0.621,0.439,1.461,0.717,2.52,0.868c1.074,0.148,2.882,0.217,5.45,0.217c2.028,0,3.528-0.039,4.523-0.084c2.397-0.125,3.713-0.631,4.411-1.385c0.922-1.009,1.479-2.441,1.517-3.21c0.108,2.462-0.632,4.045-0.829,4.447h4.57V11.81h6.415c0.937,0,1.563,0.024,1.864,0.072c0.285,0.051,0.523,0.164,0.688,0.351c0.164,0.199,0.283,0.484,0.342,0.854c0.061,0.363,0.089,0.987,0.089,1.851v0.833h5.026c-0.217-0.7-0.436-1.759-0.377-3.199c0.08,1.327,1.04,3.008,2.898,3.237c1.281,0.176,3.33,0.193,6.115,0.193c3.203,0,5.428,0.059,6.624-0.257c3.378-0.837,3.673-4.35,3.706-5.207c0.246,1.379,0.07,2.667-0.052,3.381c0.478,0.812,1.231,1.345,2.304,1.607c0.726,0.182,1.568,0.308,2.553,0.37c0.967,0.066,2.369,0.105,4.172,0.105c2.396,0,4.113-0.066,5.171-0.184c1.052-0.122,1.769-0.367,2.344-0.733c1.147-0.719,2.065-2.499,2.095-4.327c0.354,1.959-0.058,3.962-0.334,5.013h4.135v-3.82h5.717c1.768,0,2.982-0.037,3.627-0.116c0.9-0.098,1.622-0.292,2.146-0.56c0.534-0.278,0.945-0.681,1.223-1.203c0.43-0.771,0.654-2.115,0.654-4.026C183.985,4.021,183.709,2.615,183.204,1.839z M18.144,9.652h-3.971c-0.015,0.941-0.141,1.547-0.407,1.803c-0.206,0.203-0.583,0.33-1.154,0.394c-0.569,0.064-1.693,0.088-3.406,0.088c-1.372,0-2.332-0.033-2.88-0.103c-0.546-0.063-0.941-0.189-1.189-0.399c-0.267-0.2-0.44-0.545-0.534-1.011C4.5,9.941,4.458,9.138,4.458,7.99c0-1.142,0.061-1.987,0.168-2.508C4.709,4.946,4.9,4.578,5.16,4.355c0.225-0.192,0.611-0.318,1.147-0.379c0.523-0.059,1.486-0.102,2.875-0.102c1.404,0,2.451,0.043,3.146,0.121c0.69,0.067,1.119,0.176,1.283,0.326c0.126,0.124,0.205,0.264,0.243,0.437c0.038,0.17,0.07,0.504,0.087,1.016h4.202V9.652z M71.079,10.312c-0.101,0.409-0.271,0.708-0.52,0.922c-0.295,0.221-0.732,0.37-1.32,0.445c-0.59,0.057-1.784,0.091-3.557,0.091c-1.908,0-3.2-0.048-3.854-0.126c-0.896-0.117-1.438-0.55-1.613-1.332c-0.094-0.401-0.136-1.078-0.136-1.995c0-1.535,0.079-2.555,0.253-3.064c0.168-0.516,0.533-0.854,1.082-0.984c0.468-0.128,1.891-0.205,4.23-0.205c2.081,0,3.373,0.05,3.916,0.123c0.537,0.082,0.928,0.275,1.16,0.601c0.189,0.267,0.314,0.648,0.385,1.163c0.066,0.503,0.106,1.301,0.106,2.396C71.212,9.257,71.172,9.911,71.079,10.312z M78.145,6.306c-2.156,0.29-3.25,2.353-3.25,4.496c-0.268-2.603,0.513-4.32,0.74-4.742c-0.012-0.338-0.026-0.649-0.043-0.947h4.031c0.01-0.435,0.045-0.713,0.102-0.874c0.049-0.154,0.161-0.286,0.32-0.379c0.191-0.122,0.529-0.201,1.007-0.231c0.481-0.031,1.517-0.056,3.095-0.056c1.896,0,3.039,0.059,3.456,0.191c0.407,0.111,0.613,0.46,0.613,1.009c0,0.539-0.206,0.865-0.613,0.99c-0.347,0.095-1.92,0.188-4.718,0.269C80.514,6.117,78.94,6.193,78.145,6.306z M88.331,10.481c0.015,0.753-0.138,1.236-0.438,1.451c-0.213,0.129-0.486,0.219-0.828,0.247c-0.336,0.033-1.407,0.053-3.215,0.065c-1.871-0.013-3.004-0.026-3.383-0.045c-0.375-0.014-0.67-0.073-0.904-0.166c-0.323-0.14-0.479-0.525-0.479-1.156c0-0.437,0.119-0.744,0.349-0.899c0.234-0.151,0.7-0.229,1.414-0.245c0.553,0,1.714-0.045,3.493-0.142c1.808-0.083,2.991-0.134,3.549-0.144c1.073-0.045,1.896-0.148,2.468-0.324c0.28-0.088,0.527-0.202,0.747-0.339c0.005,0.65,0.017,1.218,0.033,1.697H88.331z M110.29,6.963h-9.819v3.108h5.975c0,0.208,0.019,0.353,0.019,0.423c0,0.453-0.047,0.79-0.145,1.005c-0.09,0.224-0.239,0.383-0.455,0.486c-0.267,0.106-0.641,0.18-1.066,0.209c-0.457,0.024-1.709,0.051-3.775,0.063c-2.111-0.025-3.371-0.063-3.777-0.106c-0.403-0.047-0.717-0.166-0.961-0.381c-0.252-0.204-0.412-0.571-0.5-1.093c-0.085-0.514-0.127-1.443-0.127-2.746c0-1.174,0.042-1.996,0.127-2.479c0.088-0.478,0.248-0.823,0.5-1.054c0.244-0.191,0.713-0.336,1.377-0.408c0.677-0.073,1.803-0.119,3.371-0.119c1.459,0,2.573,0.024,3.334,0.08c0.806,0.044,1.342,0.161,1.598,0.354c0.131,0.094,0.225,0.236,0.262,0.385c0.047,0.158,0.07,0.461,0.08,0.908h3.984V6.963z M124.196,7.114c-0.084,0.258-0.225,0.443-0.407,0.569c-0.157,0.099-0.351,0.161-0.55,0.186c-0.223,0.01-0.893,0.027-1.995,0.057h-6.403V4.113h6.396c1.044,0,1.667,0.021,1.896,0.039c0.213,0.006,0.412,0.056,0.566,0.128c0.229,0.119,0.391,0.298,0.475,0.549c0.094,0.249,0.139,0.624,0.139,1.146C124.313,6.471,124.268,6.86,124.196,7.114z M127.771,9.688c0.555,0.397,0.749,0.735,0.92,1.435c-0.304-0.699-1.292-1.308-2.575-1.39c1.302-0.111,2.515-0.788,2.771-1.443C128.63,9.279,127.999,9.495,127.771,9.688z M143.431,10.453c-0.089,0.422-0.263,0.729-0.524,0.937c-0.3,0.245-0.754,0.381-1.362,0.459c-0.6,0.068-1.81,0.102-3.644,0.102c-1.955,0-3.264-0.047-3.951-0.136c-0.925-0.117-1.478-0.569-1.645-1.347c-0.098-0.438-0.148-1.117-0.148-2.065c0-1.576,0.088-2.623,0.262-3.149c0.173-0.531,0.541-0.871,1.109-1.021c0.478-0.132,1.938-0.194,4.354-0.194c2.116,0,3.446,0.047,4.004,0.121c0.543,0.08,0.95,0.288,1.188,0.629c0.184,0.255,0.319,0.66,0.39,1.188c0.084,0.52,0.112,1.328,0.112,2.438C143.577,9.366,143.537,10.041,143.431,10.453z M179.285,7.251c-0.089,0.271-0.253,0.463-0.487,0.594c-0.173,0.096-0.384,0.161-0.604,0.175c-0.228,0.018-0.864,0.044-1.901,0.044h-5.675v-3.95h5.675c1.388,0.027,2.177,0.073,2.384,0.155c0.275,0.113,0.468,0.299,0.57,0.561c0.104,0.256,0.16,0.664,0.16,1.216C179.407,6.593,179.377,6.996,179.285,7.251z"/></g></g></svg>
