<?xml version="1.0" encoding="iso-8859-1"?>
<!-- Generator: Adobe Illustrator 19.0.0, SVG Export Plug-In . SVG Version: 6.00 Build 0)  -->
<svg version="1.1" id="Capa_1" xmlns="http://www.w3.org/2000/svg" xmlns:xlink="http://www.w3.org/1999/xlink" x="0px" y="0px"
	 viewBox="0 0 512 512" style="enable-background:new 0 0 512 512;" xml:space="preserve">
<path style="fill:#00D9E0;" d="M470.5,256c0,57.29-22.31,111.16-62.83,151.67C367.16,448.19,313.29,470.5,256,470.5
	s-111.16-22.31-151.67-62.83C63.81,367.16,41.5,313.29,41.5,256s22.31-111.16,62.83-151.67C144.84,63.81,198.71,41.5,256,41.5
	s111.16,22.31,151.67,62.83C448.19,144.84,470.5,198.71,470.5,256z"/>
<path style="fill:#E1E4FB;" d="M422,256c0,91.53-74.47,166-166,166S90,347.53,90,256S164.47,90,256,90S422,164.47,422,256z"/>
<g>
	<path style="fill:#FF6341;" d="M309.28,256c0,29.38-23.9,53.28-53.28,53.28s-53.28-23.9-53.28-53.28s23.9-53.28,53.28-53.28
		S309.28,226.62,309.28,256z"/>
	<rect x="241" style="fill:#FF6341;" width="30" height="165.58"/>
	<rect x="241" y="346.42" style="fill:#FF6341;" width="30" height="165.58"/>
</g>
<path style="fill:#00B7BE;" d="M470.5,256c0,57.29-22.31,111.16-62.83,151.67C367.16,448.19,313.29,470.5,256,470.5v-429
	c57.29,0,111.16,22.31,151.67,62.83C448.19,144.84,470.5,198.71,470.5,256z"/>
<path style="fill:#C5C9F7;" d="M422,256c0,91.53-74.47,166-166,166V90C347.53,90,422,164.47,422,256z"/>
<rect y="241" style="fill:#FF6341;" width="165.58" height="30"/>
<g>
	<rect x="346.42" y="241" style="fill:#FF3100;" width="165.58" height="30"/>
	<rect x="256" style="fill:#FF3100;" width="15" height="165.58"/>
	<rect x="256" y="346.42" style="fill:#FF3100;" width="15" height="165.58"/>
	<path style="fill:#FF3100;" d="M309.28,256c0,29.38-23.9,53.28-53.28,53.28V202.72C285.38,202.72,309.28,226.62,309.28,256z"/>
</g>
<g>
</g>
<g>
</g>
<g>
</g>
<g>
</g>
<g>
</g>
<g>
</g>
<g>
</g>
<g>
</g>
<g>
</g>
<g>
</g>
<g>
</g>
<g>
</g>
<g>
</g>
<g>
</g>
<g>
</g>
</svg>
