<?xml version="1.0" encoding="UTF-8" standalone="no"?><svg width="68px" height="32px" viewBox="0 0 68 32" version="1.1" xmlns="http://www.w3.org/2000/svg" xmlns:xlink="http://www.w3.org/1999/xlink">        <title>v-ray-w</title>    <desc>Created with Sketch.</desc>    <defs></defs>    <g id="Page-1" stroke="none" stroke-width="1" fill="none" fill-rule="evenodd">        <g id="v-ray-w">            <g>                <g id="Layer_1" transform="translate(3.000000, 7.000000)" fill="#000">                    <g id="Group">                        <path d="M21.1581982,3.99139414 L21.0576577,3.66067862 C21.012973,3.55804277 20.9459459,3.23873124 21.3592793,3.23873124 L21.9066667,3.23873124 L22.8003604,3.23873124 C23.034955,3.23873124 23.0796396,3.45540692 23.1243243,3.56944676 L25.5261261,10.6171084 C25.5261261,10.6171084 25.716036,11.2443275 25.8612613,11.2443275 C26.0288288,11.2443275 26.2187387,10.6171084 26.2187387,10.6171084 L28.5646847,3.56944676 C28.6093694,3.45540692 28.6540541,3.23873124 28.978018,3.23873124 L30.3297297,3.23873124 C30.7095495,3.23873124 30.6872072,3.45540692 30.6536937,3.56944676 L30.5196396,3.93437422 L26.4086486,16.0682124 C26.3304505,16.4673518 25.3362162,16.4445438 25.2691892,16.0682124 L21.1581982,3.99139414 L21.1581982,3.99139414 Z" id="Shape"></path>                        <path d="M54.8616216,16.4217359 L50.6165766,3.55804277 C50.5718919,3.44400294 50.5607207,3.23873124 50.9405405,3.22732726 L52.5156757,3.22732726 C52.6273874,3.22732726 52.7614414,3.28434717 52.8396396,3.55804277 C52.8396396,3.55804277 55.5542342,11.9513744 55.6547748,12.22507 C55.7553153,12.5215736 55.8558559,12.8408851 55.9787387,12.8522891 C56.0904505,12.8636931 56.2021622,12.6242095 56.2915315,12.3619178 C56.4144144,12.0197983 59.6093694,3.59225472 59.6093694,3.59225472 C59.6540541,3.48961887 59.6875676,3.39838701 59.7210811,3.34136709 C59.7545946,3.28434717 59.8216216,3.26153921 59.9333333,3.26153921 L60.9387387,3.26153921 L61.541982,3.26153921 C61.9441441,3.26153921 61.9106306,3.47821489 61.8659459,3.59225472 L56.1574775,18.5998967 L54.7275676,22.1123235 C54.6828829,22.2263633 54.6381982,22.2947872 54.6046847,22.3404032 C54.5823423,22.4088271 54.5153153,22.443039 54.4147748,22.443039 L52.9736937,22.443039 C52.8731532,22.443039 52.7726126,22.4088271 52.6832432,22.3404032 C52.6162162,22.2947872 52.605045,22.2149594 52.6497297,22.1123235 L54.8616216,16.4217359 L54.8616216,16.4217359 Z" id="Shape"></path>                        <path d="M29.9387387,10.8223801 C29.9387387,10.5144726 30.0392793,10.2521809 30.2403604,10.0241013 C30.4637838,9.79602161 30.7318919,9.68198178 31.0558559,9.68198178 C31.3574775,9.68198178 31.6144144,9.79602161 31.8378378,10.0241013 C32.0612613,10.2521809 32.172973,10.5144726 32.172973,10.8223801 C32.172973,11.1416916 32.0612613,11.4267912 31.8378378,11.6548709 C31.6144144,11.8601426 31.3574775,11.9627784 31.0558559,11.9627784 C30.7318919,11.9627784 30.474955,11.8601426 30.2627027,11.6320629 C30.0504505,11.4267912 29.9387387,11.1530956 29.9387387,10.8223801" id="Shape"></path>                        <path d="M37.523964,5.41689204 C37.2558559,5.53093187 37.0324324,5.70199162 36.8201802,5.87305137 C36.7531532,5.9186673 36.6972973,5.97568722 36.6302703,6.03270714 L36.4738739,6.1923629 C36.283964,6.43184655 36.1275676,6.69413817 36.027027,6.97923775 C35.8818018,7.32135724 35.8036036,7.70909267 35.8036036,8.11963607 L35.8036036,15.9655765 C35.8036036,16.1822522 35.7030631,16.2962921 35.4908108,16.2962921 L34.2061261,16.2962921 C33.9938739,16.2962921 33.8821622,16.1822522 33.8821622,15.9655765 L33.8821622,8.13104005 C33.8821622,7.82313251 33.9045045,7.51522496 33.9491892,7.21872139 C34.0162162,6.86519791 34.1279279,6.54588638 34.2731532,6.23797884 C34.5300901,5.63356772 34.8652252,5.09758051 35.2897297,4.66422915 C35.7142342,4.23087778 36.2169369,3.8773543 36.7978378,3.61506269 C37.1218018,3.47821489 37.4345946,3.38698302 37.7585586,3.31855912 C37.9484685,3.27294319 38.1383784,3.23873124 38.3394595,3.21592328 L38.6857658,3.21592328 C41.2774775,3.15890336 42.483964,4.81248093 42.8302703,5.10898449 C42.9754955,5.25723628 43.009009,5.53093187 42.7520721,5.64497171 L41.6014414,5.95287925 C41.2886486,6.07832307 41.0652252,6.03270714 40.8418018,5.80462747 C40.7524324,5.73620357 39.289009,4.67563313 37.523964,5.41689204" id="Shape"></path>                        <path d="M48.3488288,14.3348069 L44.9527928,14.3348069 C44.4165766,14.311999 43.0313514,13.9926874 43.0313514,12.3733218 C43.0313514,11.8031227 43.2659459,11.2443275 43.5899099,10.9478239 C44.2378378,10.3776248 44.9527928,10.4118367 44.9527928,10.4118367 L48.0248649,10.4118367 C48.1924324,10.4118367 48.3041441,10.5030686 48.3488288,10.6741283 L48.3488288,14.3348069 L48.3488288,14.3348069 Z M49.8792793,6.21517087 C49.6223423,5.61075976 49.2872072,5.09758051 48.8515315,4.66422915 C48.427027,4.23087778 46.8742342,2.94222768 43.6681081,3.45540692 C43.3553153,3.58085074 43.4,3.77471845 43.7127928,4.082626 C43.8468468,4.20806982 44.3718919,4.81248093 44.5506306,4.96073271 C44.9081081,5.25723628 45.1091892,5.22302433 45.2544144,5.21162034 C48.1030631,5.05196458 48.3488288,7.70909267 48.3488288,8.11963607 L48.3488288,8.22227192 C48.3041441,8.3705237 48.2036036,8.45035159 48.0248649,8.45035159 L44.9527928,8.45035159 C44.4389189,8.45035159 43.9473874,8.55298743 43.4781982,8.75825913 C43.009009,8.96353083 42.5956757,9.23722643 42.2493694,9.59074991 C41.8918919,9.94427339 41.6126126,10.3548168 41.4115315,10.8337841 C41.2104505,11.3127514 41.1099099,11.8259306 41.1099099,12.3733218 C41.1099099,12.8979051 41.2104505,13.3996803 41.4115315,13.8786476 C41.6126126,14.3576149 41.8918919,14.7795623 42.2493694,15.1330858 C42.5956757,15.4980132 43.009009,15.7717088 43.4781982,15.9769805 C43.9473874,16.1822522 44.4389189,16.2848881 44.9527928,16.2848881 L48.5722523,16.2848881 L48.6727928,16.2848881 L49.9463063,16.2848881 C50.1585586,16.2848881 50.2702703,16.1708482 50.2702703,15.9541726 L50.2702703,8.11963607 C50.2590991,7.45820504 50.1362162,6.81958198 49.8792793,6.21517087 L49.8792793,6.21517087 Z" id="Shape"></path>                        <path d="M9.80828829,3.04486353 C11.1488288,3.04486353 12.2436036,2.70274403 12.2547748,2.28079665 C12.2659459,1.85884927 11.1823423,1.51672977 9.8418018,1.51672977 C8.50126126,1.51672977 7.40648649,1.85884927 7.39531532,2.28079665 C7.38414414,2.69134005 8.46774775,3.04486353 9.80828829,3.04486353 M9.60720721,17.9726776 C4.92648649,17.9726776 1.12828829,14.0953233 1.12828829,9.31705431 C1.12828829,6.52307842 2.43531532,4.04841405 4.44612613,2.46326038 C1.06126126,6.37482663 4.84828829,14.7909663 7.02666667,15.0190459 C9.75243243,15.1901057 10.7801802,6.40903858 13.9751351,5.28004424 C16.3769369,4.3563216 18.1866667,8.02840421 17.0918919,12.1680501 C15.9971171,15.680477 13.1484685,17.9156577 9.60720721,17.9726776 M5.6972973,2.16675682 C6.34522523,1.42549791 7.42882883,0.855298743 8.89225225,0.707046961 C9.12684685,0.684238995 9.37261261,0.672835012 9.60720721,0.672835012 C11.9978378,0.672835012 14.165045,1.68778952 15.7066667,3.31855912 C15.4944144,3.25013523 15.1927928,3.14749938 14.6118919,3.14749938 C9.92,3.14749938 8.32252252,12.6128055 6.91495495,12.5785935 C5.98774775,12.6128055 2.80396396,5.48531594 5.6972973,2.16675682 M9.60720721,0.045615933 C4.34558559,0.045615933 0.0893693694,4.39053355 0.0893693694,9.76180966 C0.0893693694,15.1330858 4.34558559,19.4780034 9.60720721,19.4780034 C14.8576577,19.4780034 19.125045,15.1330858 19.125045,9.76180966 C19.125045,4.39053355 14.8688288,0.045615933 9.60720721,0.045615933" id="Shape"></path>                    </g>                </g>                <rect id="Rectangle-2-Copy-4" fill-opacity="0" fill="#D8D8D8" x="0" y="0" width="68" height="32"></rect>            </g>        </g>    </g></svg>
